<svg xmlns="http://www.w3.org/2000/svg" viewBox="0 0 666.51 185.94"><defs><style>.cls-1{fill:#e856a6;stroke:#e856a6;}.cls-1,.cls-2{stroke-miterlimit:10;stroke-width:4px;}.cls-2,.cls-3,.cls-5{fill:#282828;}.cls-2{stroke:#282828;}.cls-3{font-size:112.21px;letter-spacing:0.11em;}.cls-3,.cls-5{font-family:SegoeUI-Semibold, Segoe UI;font-weight:600;}.cls-4{letter-spacing:0.11em;}.cls-5{font-size:65.41px;letter-spacing:0.11em;}.cls-6{letter-spacing:0.14em;}.cls-7{letter-spacing:0.08em;}.cls-8{letter-spacing:0.11em;}</style></defs><g id="Capa_2" data-name="Capa 2"><g id="Capa_2-2" data-name="Capa 2"><path class="cls-1" d="M76.89,117.07a10.3,10.3,0,0,0-8.07,9.24s-.89,8.77-1.12,16a27.46,27.46,0,0,1-2.14,10c-2.25,5.18-6.84,11.15-16.13,11.75,0,0-11,1.15-19.07-15.18A29.22,29.22,0,0,1,28.8,145L12.08,93.36,3.59,60.92s-5.82-22.8,4.82-38.11c0,0,12.81-17.47,31-16.47,0,0,14.63-.3,35.6,15.65a59.32,59.32,0,0,0,14,8,85.22,85.22,0,0,0,27.06,6s-3.65,2.46-20.31,3.71c-.47,0-.94.08-1.4.14-2.41.28-13,.81-27.32-9.29,0,0-11.32-10.2-21.63-12.76,0,0-13.09-3-23.52,6.44a32.16,32.16,0,0,0-9.32,21.3s0,13.86,4.44,25l18.08,62.23s5.43,20.08,14.25,20.46c0,0,6.77.61,7.77-11.75,0,0,.33-17,1.16-19.42a22,22,0,0,1,14.42-16.19H84.68l5.21,14.64,26.24-76.49,13.31-7.1-33.61,103H84.51Z"/><path class="cls-2" d="M25.5,40.53V99.27H70.73L87.2,147.69a28.64,28.64,0,0,0,6.56,10.47,17.59,17.59,0,0,0,21.48,2.53l.17-.1s10.06-10,13.31-22.72l17.8-56.76s7.55-27,7.1-35.5c0,0-.77-20.3-14-30.62,0,0-6.83-7.46-24.16-8.66l-.57,0c-17.75-1.07-31.4,13-31.4,13L95.05,25s10.43-8,20.52-8,19.19,8.54,19.19,8.54,7.55,7.32,7.66,20.85a67.39,67.39,0,0,1-2.89,18l-21.41,71s-3.85,12.62-9.7,16.52a4.84,4.84,0,0,1-4.91.31C101.2,151,98,147.83,96.33,139.4l-17-50.09H36.54V75.48h27.7V63.83H36.62V51.76h28.7V40H25.5Z"/><text class="cls-3" transform="translate(163.67 95.39)">ELIB<tspan class="cls-4" x="262.77" y="0">E</tspan><tspan x="333.74" y="0">TH</tspan></text><text class="cls-5" transform="translate(191.8 158.02)">VIL<tspan class="cls-6" x="114.6" y="0">L</tspan><tspan x="155.46" y="0">A</tspan><tspan class="cls-7" x="206.57" y="0">L</tspan><tspan class="cls-8" x="243.79" y="0">OBOS</tspan></text></g></g></svg>