<svg xmlns="http://www.w3.org/2000/svg" viewBox="0 0 1527.89 467.51"><defs><style>.cls-1,.cls-5{font-size:55.14px;letter-spacing:0.11em;}.cls-1{fill:#282828;}.cls-1,.cls-5,.cls-6{font-family:SegoeUI-Semibold, Segoe UI;font-weight:600;}.cls-2{letter-spacing:0.14em;}.cls-3{letter-spacing:0.08em;}.cls-4{letter-spacing:0.11em;}.cls-5,.cls-6,.cls-9{fill:#f4f4f4;}.cls-6{font-size:94.58px;letter-spacing:0.11em;}.cls-7{letter-spacing:0.11em;}.cls-8{fill:#e856a6;stroke:#e856a6;}.cls-8,.cls-9{stroke-miterlimit:10;stroke-width:4px;}.cls-9{stroke:#f4f4f4;}</style></defs><g id="Capa_2" data-name="Capa 2"><g id="Capa_2-2" data-name="Capa 2"><text class="cls-1" transform="translate(1151.46 443.98)">VIL<tspan class="cls-2" x="96.6" y="0">L</tspan><tspan x="131.04" y="0">A</tspan><tspan class="cls-3" x="174.12" y="0">L</tspan><tspan class="cls-4" x="205.49" y="0">OBOS</tspan></text></g><g id="Secundario_Aleternativo"><text class="cls-5" transform="translate(23.71 443.98)">VIL<tspan class="cls-2" x="96.6" y="0">L</tspan><tspan x="131.04" y="0">A</tspan><tspan class="cls-3" x="174.12" y="0">L</tspan><tspan class="cls-4" x="205.49" y="0">OBOS</tspan></text><text class="cls-6" transform="translate(0 391.18)">ELIB<tspan class="cls-7" x="221.49" y="0">E</tspan><tspan x="281.31" y="0">TH</tspan></text><path class="cls-8" d="M210.27,198s-12.94,2.35-14.27,16.33c0,0-1.56,15.51-2,28.27a48.18,48.18,0,0,1-3.79,17.74c-4,9.17-12.09,19.73-28.52,20.79,0,0-19.54,2-33.73-26.85a52.18,52.18,0,0,1-2.75-6.92L95.66,156.08l-15-57.39s-10.3-40.31,8.53-67.38c0,0,22.65-30.9,54.88-29.13,0,0,25.86-.53,62.95,27.68A105.7,105.7,0,0,0,231.81,44a150.49,150.49,0,0,0,47.86,10.53s-6.44,4.36-35.92,6.56c-.82.06-1.65.15-2.47.25-4.27.51-22.91,1.43-48.32-16.42,0,0-20-18-38.25-22.56,0,0-23.15-5.3-41.59,11.38A57,57,0,0,0,96.64,71.43s0,24.52,7.85,44.14l32,110.05s9.62,35.51,25.21,36.2c0,0,12,1.08,13.73-20.8,0,0,.59-30,2.06-34.33A38.83,38.83,0,0,1,203,178.05h21.09l9.22,25.89L279.67,68.68l23.54-12.56L243.77,238.18h-20Z"/><path class="cls-9" d="M119.39,62.65V166.52h80l29.13,85.64a50.48,50.48,0,0,0,11.59,18.5,31.11,31.11,0,0,0,38,4.48l.3-.18s17.8-17.66,23.54-40.17L333.43,134.4S346.77,86.73,346,71.62c0,0-1.37-35.9-24.72-54.14,0,0-12.09-13.2-42.74-15.31l-1-.07C246.13.21,222,25.13,222,25.13l20.4,10S260.84,21,278.69,21s33.94,15.1,33.94,15.1S326,49.06,326.17,73a119.53,119.53,0,0,1-5.1,31.78L283.2,230.33s-6.82,22.32-17.15,29.21a8.56,8.56,0,0,1-8.69.55c-4.08-2.09-9.81-7.68-12.71-22.6l-30-88.57H138.91V124.44h49v-20.6H139.06V82.51h50.76V61.76H119.39Z"/></g></g></svg>